# xmcd
#
# Track frame offsets:
#	150
#	19963
#	40946
#	80895
#	168141
#	192588
#	251873
#
# Disc length: 4760 seconds
#
# Revision: 0
# Processed by: cddbd v1.5.2PL0 Copyright (c) Steve Scherf et al.
# Submitted via: dBpowerAMP V4.0
#
DISCID=5e129607
DTITLE=THE ALLMAN BROTHERS BAND - Live At Filmore East
DYEAR=2002
DGENRE=Blues
TTITLE0=Statesboro Blues
TTITLE1=Done Somebody Wrong
TTITLE2=Stormy Monday
TTITLE3=You Don't Love Me
TTITLE4=Hot 'Lanta
TTITLE5=In Memory Of Elizabeth Reed
TTITLE6=Whipping Post
EXTD=
EXTT0=
EXTT1=
EXTT2=
EXTT3=
EXTT4=
EXTT5=
EXTT6=
PLAYORDER=
